<mxfile host="app.diagrams.net" modified="2022-04-05T05:48:23.627Z" agent="5.0 (Windows NT 10.0; Win64; x64) AppleWebKit/537.36 (KHTML, like Gecko) Chrome/99.0.4844.84 Safari/537.36" etag="hwMYk_vptMpWSYqXZN9Q" version="17.4.0" type="github">
  <diagram id="TrolmJvraXuonUQqKm98" name="Page-1">
    <mxGraphModel dx="1915" dy="449" grid="1" gridSize="10" guides="1" tooltips="1" connect="1" arrows="1" fold="1" page="1" pageScale="1" pageWidth="850" pageHeight="1100" math="0" shadow="0">
      <root>
        <mxCell id="0" />
        <mxCell id="1" parent="0" />
        <mxCell id="xExBEeNWHdO0K1nKuhv7-4" value="&lt;p style=&quot;margin: 0px ; margin-top: 4px ; text-align: center&quot;&gt;&lt;b&gt;Doctor&lt;/b&gt;&lt;/p&gt;&lt;hr size=&quot;1&quot;&gt;&lt;p style=&quot;margin: 0px ; margin-left: 4px&quot;&gt;+ DociD: Integer&lt;/p&gt;&lt;p style=&quot;margin: 0px ; margin-left: 4px&quot;&gt;+ Name: Char&lt;/p&gt;&lt;p style=&quot;margin: 0px ; margin-left: 4px&quot;&gt;+ Department: Char&amp;nbsp;&lt;/p&gt;&lt;p style=&quot;margin: 0px ; margin-left: 4px&quot;&gt;+ Specialization: Char&lt;/p&gt;&lt;p style=&quot;margin: 0px ; margin-left: 4px&quot;&gt;+ Phno: Interger&lt;/p&gt;&lt;p style=&quot;margin: 0px ; margin-left: 4px&quot;&gt;+ Address: Char&lt;/p&gt;&lt;hr size=&quot;1&quot;&gt;&lt;p style=&quot;margin: 0px ; margin-left: 4px&quot;&gt;+ Prescribe medicine()&lt;/p&gt;&lt;p style=&quot;margin: 0px ; margin-left: 4px&quot;&gt;+ Check Report()&lt;/p&gt;&lt;p style=&quot;margin: 0px ; margin-left: 4px&quot;&gt;+ Prescribe Tests()&lt;/p&gt;&lt;p style=&quot;margin: 0px ; margin-left: 4px&quot;&gt;+ Draw Salary()&lt;/p&gt;" style="verticalAlign=top;align=left;overflow=fill;fontSize=12;fontFamily=Helvetica;html=1;" vertex="1" parent="1">
          <mxGeometry x="80" y="40" width="160" height="190" as="geometry" />
        </mxCell>
        <mxCell id="xExBEeNWHdO0K1nKuhv7-8" value="Give appointment" style="edgeStyle=orthogonalEdgeStyle;rounded=0;orthogonalLoop=1;jettySize=auto;html=1;" edge="1" parent="1">
          <mxGeometry x="-0.0909" y="14" relative="1" as="geometry">
            <mxPoint x="510" y="114" as="sourcePoint" />
            <mxPoint x="620" y="114" as="targetPoint" />
            <Array as="points">
              <mxPoint x="540" y="114" />
              <mxPoint x="540" y="114" />
            </Array>
            <mxPoint as="offset" />
          </mxGeometry>
        </mxCell>
        <mxCell id="xExBEeNWHdO0K1nKuhv7-5" value="&lt;p style=&quot;margin: 0px ; margin-top: 4px ; text-align: center&quot;&gt;&lt;b&gt;Patient&lt;/b&gt;&lt;/p&gt;&lt;hr size=&quot;1&quot;&gt;&lt;p style=&quot;margin: 0px ; margin-left: 4px&quot;&gt;+ ID: Integer&lt;/p&gt;&lt;p style=&quot;margin: 0px ; margin-left: 4px&quot;&gt;+ NAME: Char&lt;/p&gt;&lt;p style=&quot;margin: 0px ; margin-left: 4px&quot;&gt;+ PhNo: Integer&lt;/p&gt;&lt;p style=&quot;margin: 0px ; margin-left: 4px&quot;&gt;+ Address: Char&lt;/p&gt;&lt;p style=&quot;margin: 0px ; margin-left: 4px&quot;&gt;+ Age: Integer&lt;/p&gt;&lt;p style=&quot;margin: 0px ; margin-left: 4px&quot;&gt;+Sex: Char&lt;br&gt;&lt;/p&gt;&lt;p style=&quot;margin: 0px ; margin-left: 4px&quot;&gt;RoomNo: Integer&lt;/p&gt;&lt;hr size=&quot;1&quot;&gt;&lt;p style=&quot;margin: 0px ; margin-left: 4px&quot;&gt;+ Pay Bill()&lt;/p&gt;" style="verticalAlign=top;align=left;overflow=fill;fontSize=12;fontFamily=Helvetica;html=1;" vertex="1" parent="1">
          <mxGeometry x="350" y="40" width="160" height="170" as="geometry" />
        </mxCell>
        <mxCell id="xExBEeNWHdO0K1nKuhv7-6" value="Checks" style="html=1;verticalAlign=bottom;endArrow=block;rounded=0;entryX=0;entryY=0.5;entryDx=0;entryDy=0;" edge="1" parent="1" source="xExBEeNWHdO0K1nKuhv7-4" target="xExBEeNWHdO0K1nKuhv7-5">
          <mxGeometry width="80" relative="1" as="geometry">
            <mxPoint x="240" y="95" as="sourcePoint" />
            <mxPoint x="320" y="95" as="targetPoint" />
          </mxGeometry>
        </mxCell>
        <mxCell id="xExBEeNWHdO0K1nKuhv7-7" value="&lt;p style=&quot;margin: 0px ; margin-top: 4px ; text-align: center&quot;&gt;&lt;b&gt;Receptionist&lt;/b&gt;&lt;/p&gt;&lt;hr size=&quot;1&quot;&gt;&lt;p style=&quot;margin: 0px ; margin-left: 4px&quot;&gt;+ ID: Integer&lt;/p&gt;&lt;p style=&quot;margin: 0px ; margin-left: 4px&quot;&gt;+ NAME: Char&lt;/p&gt;&lt;hr size=&quot;1&quot;&gt;&lt;p style=&quot;margin: 0px ; margin-left: 4px&quot;&gt;+ Generate Bill()&lt;/p&gt;&lt;p style=&quot;margin: 0px ; margin-left: 4px&quot;&gt;+ Check Room Availability()&lt;/p&gt;&lt;p style=&quot;margin: 0px ; margin-left: 4px&quot;&gt;+ Book Room()&lt;/p&gt;&lt;p style=&quot;margin: 0px ; margin-left: 4px&quot;&gt;+ Maintain Patient Details()&lt;/p&gt;&lt;p style=&quot;margin: 0px ; margin-left: 4px&quot;&gt;+ Draw Salary()&lt;/p&gt;" style="verticalAlign=top;align=left;overflow=fill;fontSize=12;fontFamily=Helvetica;html=1;" vertex="1" parent="1">
          <mxGeometry x="620" y="40" width="160" height="150" as="geometry" />
        </mxCell>
        <mxCell id="xExBEeNWHdO0K1nKuhv7-9" value="&lt;p style=&quot;margin: 0px ; margin-top: 4px ; text-align: center&quot;&gt;&lt;b&gt;Department&lt;/b&gt;&lt;/p&gt;&lt;hr size=&quot;1&quot;&gt;&lt;p style=&quot;margin: 0px ; margin-left: 4px&quot;&gt;+ Id: Integer&lt;/p&gt;&lt;p style=&quot;margin: 0px ; margin-left: 4px&quot;&gt;+ DociD: Integer&lt;/p&gt;&lt;p style=&quot;margin: 0px ; margin-left: 4px&quot;&gt;+ Name: Char&lt;/p&gt;&lt;hr size=&quot;1&quot;&gt;&lt;p style=&quot;margin: 0px ; margin-left: 4px&quot;&gt;+ Add department()&lt;/p&gt;&lt;p style=&quot;margin: 0px ; margin-left: 4px&quot;&gt;+ Delete Department()&lt;/p&gt;&lt;p style=&quot;margin: 0px ; margin-left: 4px&quot;&gt;+ Add doctor()&lt;/p&gt;&lt;p style=&quot;margin: 0px ; margin-left: 4px&quot;&gt;+ Delete Doctor()&lt;/p&gt;" style="verticalAlign=top;align=left;overflow=fill;fontSize=12;fontFamily=Helvetica;html=1;" vertex="1" parent="1">
          <mxGeometry x="80" y="310" width="160" height="150" as="geometry" />
        </mxCell>
        <mxCell id="xExBEeNWHdO0K1nKuhv7-10" value="&lt;p style=&quot;margin: 0px ; margin-top: 4px ; text-align: center&quot;&gt;&lt;b&gt;Staff&lt;/b&gt;&lt;/p&gt;&lt;hr size=&quot;1&quot;&gt;&lt;p style=&quot;margin: 0px ; margin-left: 4px&quot;&gt;+ Id: Integer&lt;/p&gt;&lt;p style=&quot;margin: 0px ; margin-left: 4px&quot;&gt;+&amp;nbsp;&lt;span&gt;Name: Char&lt;/span&gt;&lt;/p&gt;&lt;p style=&quot;margin: 0px ; margin-left: 4px&quot;&gt;&lt;span&gt;+ Type: Char&lt;/span&gt;&lt;/p&gt;&lt;hr size=&quot;1&quot;&gt;&lt;p style=&quot;margin: 0px ; margin-left: 4px&quot;&gt;+ Draw salary()&lt;/p&gt;&lt;p style=&quot;margin: 0px ; margin-left: 4px&quot;&gt;+ Add person()&lt;/p&gt;&lt;p style=&quot;margin: 0px ; margin-left: 4px&quot;&gt;+ Delete person()&lt;/p&gt;&lt;p style=&quot;margin: 0px ; margin-left: 4px&quot;&gt;+ Edit person()&lt;/p&gt;" style="verticalAlign=top;align=left;overflow=fill;fontSize=12;fontFamily=Helvetica;html=1;" vertex="1" parent="1">
          <mxGeometry x="470" y="310" width="160" height="150" as="geometry" />
        </mxCell>
        <mxCell id="xExBEeNWHdO0K1nKuhv7-11" value="&lt;p style=&quot;margin: 0px ; margin-top: 4px ; text-align: center&quot;&gt;&lt;b&gt;Room&lt;/b&gt;&lt;/p&gt;&lt;hr size=&quot;1&quot;&gt;&lt;div style=&quot;height: 2px&quot;&gt;+ RoomNo: Integer&lt;/div&gt;&lt;div style=&quot;height: 2px&quot;&gt;&lt;br&gt;&lt;/div&gt;&lt;div style=&quot;height: 2px&quot;&gt;&lt;br&gt;&lt;/div&gt;&lt;div style=&quot;height: 2px&quot;&gt;&lt;br&gt;&lt;/div&gt;&lt;div style=&quot;height: 2px&quot;&gt;&lt;br&gt;&lt;/div&gt;&lt;div style=&quot;height: 2px&quot;&gt;&lt;br&gt;&lt;/div&gt;&lt;div style=&quot;height: 2px&quot;&gt;+ FloorNo: Integer&lt;/div&gt;" style="verticalAlign=top;align=left;overflow=fill;fontSize=12;fontFamily=Helvetica;html=1;" vertex="1" parent="1">
          <mxGeometry x="285" y="355" width="140" height="75" as="geometry" />
        </mxCell>
        <mxCell id="xExBEeNWHdO0K1nKuhv7-13" value="&lt;p style=&quot;margin: 0px ; margin-top: 4px ; text-align: center&quot;&gt;&lt;b&gt;Bill&lt;/b&gt;&lt;/p&gt;&lt;hr size=&quot;1&quot;&gt;&lt;div style=&quot;height: 2px&quot;&gt;+ BillNo: Integer&lt;/div&gt;&lt;div style=&quot;height: 2px&quot;&gt;&lt;br&gt;&lt;/div&gt;&lt;div style=&quot;height: 2px&quot;&gt;&lt;br&gt;&lt;/div&gt;&lt;div style=&quot;height: 2px&quot;&gt;&lt;br&gt;&lt;/div&gt;&lt;div style=&quot;height: 2px&quot;&gt;&lt;br&gt;&lt;/div&gt;&lt;div style=&quot;height: 2px&quot;&gt;&lt;br&gt;&lt;/div&gt;&lt;div style=&quot;height: 2px&quot;&gt;&lt;br&gt;&lt;/div&gt;&lt;div style=&quot;height: 2px&quot;&gt;+ PatientName: Char&lt;/div&gt;&lt;div style=&quot;height: 2px&quot;&gt;&lt;br&gt;&lt;/div&gt;&lt;div style=&quot;height: 2px&quot;&gt;&lt;br&gt;&lt;/div&gt;&lt;div style=&quot;height: 2px&quot;&gt;&lt;br&gt;&lt;/div&gt;&lt;div style=&quot;height: 2px&quot;&gt;&lt;br&gt;&lt;/div&gt;&lt;div style=&quot;height: 2px&quot;&gt;&lt;br&gt;&lt;/div&gt;&lt;div style=&quot;height: 2px&quot;&gt;&lt;br&gt;&lt;/div&gt;&lt;div style=&quot;height: 2px&quot;&gt;+ Amount: Float&amp;nbsp;&lt;/div&gt;" style="verticalAlign=top;align=left;overflow=fill;fontSize=12;fontFamily=Helvetica;html=1;" vertex="1" parent="1">
          <mxGeometry x="660" y="347.5" width="140" height="75" as="geometry" />
        </mxCell>
        <mxCell id="xExBEeNWHdO0K1nKuhv7-14" value="Belongs to" style="html=1;verticalAlign=bottom;endArrow=block;rounded=0;" edge="1" parent="1" target="xExBEeNWHdO0K1nKuhv7-9">
          <mxGeometry y="30" width="80" relative="1" as="geometry">
            <mxPoint x="160" y="230" as="sourcePoint" />
            <mxPoint x="240" y="230" as="targetPoint" />
            <mxPoint as="offset" />
          </mxGeometry>
        </mxCell>
        <mxCell id="xExBEeNWHdO0K1nKuhv7-15" value="Allotted to" style="html=1;verticalAlign=bottom;endArrow=block;rounded=0;entryX=0.5;entryY=0;entryDx=0;entryDy=0;" edge="1" parent="1" target="xExBEeNWHdO0K1nKuhv7-11">
          <mxGeometry x="0.3734" y="-21" width="80" relative="1" as="geometry">
            <mxPoint x="430" y="210" as="sourcePoint" />
            <mxPoint x="510" y="210" as="targetPoint" />
            <mxPoint as="offset" />
          </mxGeometry>
        </mxCell>
        <mxCell id="xExBEeNWHdO0K1nKuhv7-16" value="Do Cleaning" style="html=1;verticalAlign=bottom;endArrow=block;rounded=0;entryX=1;entryY=0.25;entryDx=0;entryDy=0;" edge="1" parent="1" target="xExBEeNWHdO0K1nKuhv7-11">
          <mxGeometry x="0.1701" y="-18" width="80" relative="1" as="geometry">
            <mxPoint x="470" y="320" as="sourcePoint" />
            <mxPoint x="550" y="320" as="targetPoint" />
            <mxPoint as="offset" />
          </mxGeometry>
        </mxCell>
        <mxCell id="xExBEeNWHdO0K1nKuhv7-17" value="Pays Bill" style="html=1;verticalAlign=bottom;endArrow=block;rounded=0;entryX=0.5;entryY=0;entryDx=0;entryDy=0;" edge="1" parent="1" target="xExBEeNWHdO0K1nKuhv7-13">
          <mxGeometry x="-0.1828" y="16" width="80" relative="1" as="geometry">
            <mxPoint x="510" y="170" as="sourcePoint" />
            <mxPoint x="590" y="170" as="targetPoint" />
            <mxPoint as="offset" />
          </mxGeometry>
        </mxCell>
        <mxCell id="xExBEeNWHdO0K1nKuhv7-18" value="Generates" style="html=1;verticalAlign=bottom;endArrow=block;rounded=0;entryX=0.75;entryY=0;entryDx=0;entryDy=0;" edge="1" parent="1" target="xExBEeNWHdO0K1nKuhv7-13">
          <mxGeometry x="0.2235" y="29" width="80" relative="1" as="geometry">
            <mxPoint x="730" y="190" as="sourcePoint" />
            <mxPoint x="810" y="190" as="targetPoint" />
            <mxPoint as="offset" />
          </mxGeometry>
        </mxCell>
        <mxCell id="xExBEeNWHdO0K1nKuhv7-19" value="Aditya Sharma&lt;br style=&quot;font-size: 16px;&quot;&gt;UID: 20BCS9872" style="text;html=1;strokeColor=none;fillColor=none;align=center;verticalAlign=middle;whiteSpace=wrap;rounded=0;fontSize=16;" vertex="1" parent="1">
          <mxGeometry x="-100" y="110" width="130" height="50" as="geometry" />
        </mxCell>
      </root>
    </mxGraphModel>
  </diagram>
</mxfile>
